<svg id="Layer_1" data-name="Layer 1" xmlns="http://www.w3.org/2000/svg" viewBox="0 0 717.77 143.45"><defs><style>.cls-1{fill:#FFF;}</style></defs><title>coerver wordmark white</title><path class="cls-1" d="M458.12,125.08a5.57,5.57,0,0,0-5.25-2.9,9.54,9.54,0,0,0-8.92,7.29c-1.07,4.15,1,7.16,5.27,7.16a10.29,10.29,0,0,0,6.63-2.8L453.71,142a22.26,22.26,0,0,1-6.35,1.22,11.35,11.35,0,0,1-8.89-3.87c-2.22-2.61-2.66-6-1.65-10a18.79,18.79,0,0,1,6.39-9.65,18.46,18.46,0,0,1,11.12-4.25,13.82,13.82,0,0,1,5.91,1.32Z"/><path class="cls-1" d="M489.14,128.92a19.23,19.23,0,0,1-18.32,14.53c-8.46,0-13-6-10.8-14.53,2.05-8,10.49-13.57,18.06-13.57S491.21,121,489.14,128.92Zm-22,0c-1.18,4.54,1.3,7.86,5.4,7.86s8.29-3.31,9.48-7.86c.94-3.64-1.56-7-5.65-7s-8.29,3.32-9.23,7Z"/><path class="cls-1" d="M496.66,138l-3,4.57h-7.27l17-26.33h7.47l3.09,26.33h-7.3L506.1,138ZM505,124.37h-.07l-5,8.38h5.68Z"/><path class="cls-1" d="M539.42,125.08a5.57,5.57,0,0,0-5.27-2.9,9.52,9.52,0,0,0-8.9,7.29c-1.09,4.15,1,7.16,5.27,7.16a10.2,10.2,0,0,0,6.61-2.8L535,142a22.29,22.29,0,0,1-6.35,1.22,11.29,11.29,0,0,1-8.87-3.87c-2.25-2.61-2.68-6-1.67-10a18.9,18.9,0,0,1,6.38-9.65,18.54,18.54,0,0,1,11.14-4.25,13.82,13.82,0,0,1,5.91,1.32Z"/><path class="cls-1" d="M560,126.4l2.63-10.17h6.85l-6.84,26.33h-6.83l2.79-10.79h-9.9l-2.79,10.79H539.1l6.81-26.33h6.84l-2.62,10.17H560Z"/><path class="cls-1" d="M574,142.57h-6.86L574,116.23h6.84Z"/><path class="cls-1" d="M585.29,116.23h6.85l8.36,16.1h.07l4.17-16.1h6.85l-6.83,26.33h-6.85l-8.35-16.14h-.07l-4.19,16.14h-6.84Z"/><path class="cls-1" d="M639.3,127.86c-1.06,3.86-2.2,7.13-5.39,10.42a16.72,16.72,0,0,1-12.2,5.17c-8.26,0-12.57-5.63-10.42-13.9a18.45,18.45,0,0,1,18-14.2c5.42,0,9,2.46,10,7.38l-7.2,2.72a4.33,4.33,0,0,0-4.47-4.19h-.12c-4.52,0-8,4.28-9,8.3s.3,8.25,4.81,8.25a6.78,6.78,0,0,0,6.7-4.59h-5.59l1.4-5.37H639.3Z"/><path class="cls-1" d="M166.07,18.76H147.32c-15.54,0-31.28,12.6-35.15,28.13l-2.34,9.38h0C106,71.82,115.44,84.43,131,84.43h18.75c15.55,0,31.28-12.61,35.14-28.16l2.35-9.38h0C191.1,31.35,181.59,18.76,166.07,18.76Zm11.76,28.13-2.33,9.38C172.92,66.61,162.41,75,152.06,75H133.3c-10.35,0-16.65-8.43-14.07-18.77h0l2.31-9.38c2.58-10.34,13.09-18.77,23.44-18.77h18.75c10.35,0,16.69,8.42,14.09,18.77h0ZM170.75,0H152C126.07,0,99.86,21,93.42,46.89l-2.34,9.38h0c-6.43,25.91,9.36,46.92,35.25,46.92h18.76c25.9,0,52.12-21,58.56-46.92L206,46.89h0C212.41,21,196.64,0,170.75,0Zm25.83,46.89-2.34,9.38C189.09,77,168.13,93.8,147.41,93.8H128.65C107.92,93.8,95.3,77,100.46,56.27h0l2.33-9.38C108,26.18,128.94,9.37,149.65,9.37h18.76c20.73,0,33.33,16.81,28.18,37.52h0Z"/><path class="cls-1" d="M31.91,46.89C34.48,36.55,45,28.12,55.35,28.12H93.13A6.4,6.4,0,0,0,99,23.45a3.52,3.52,0,0,0-3.51-4.69H57.69c-15.54,0-31.27,12.6-35.13,28.13l-2.34,9.38h0c-3.87,15.55,5.57,28.16,21.14,28.16H79.12A6.43,6.43,0,0,0,85,79.73,3.54,3.54,0,0,0,81.47,75H43.69C33.32,75,27,66.62,29.57,56.28h0ZM76.82,93.8H39C18.3,93.8,5.65,77,10.81,56.27h0l2.34-9.38C18.34,26.18,39.31,9.37,60,9.37H97.8a6.36,6.36,0,0,0,5.85-4.68A3.54,3.54,0,0,0,100.14,0H62.35C36.44,0,10.23,21,3.77,46.89L1.43,56.27h0C-5,82.18,10.77,103.19,36.68,103.19H74.45a6.42,6.42,0,0,0,5.88-4.71,3.55,3.55,0,0,0-3.51-4.67Z"/><path class="cls-1" d="M284.89,18.76H266.13c-15.56,0-31.28,12.6-35.15,28.13h75C309.9,31.35,300.43,18.76,284.89,18.76ZM245.23,37.51c4.62-5.61,11.63-9.38,18.56-9.38h18.76c6.94,0,12,3.78,13.89,9.38Zm77.23,18.76,2.32-9.38C331.25,21,315.45,0,289.54,0H270.8c-25.9,0-52.12,21-58.58,46.89l-2.33,9.38c-6.43,25.91,9.33,46.92,35.23,46.92h60.7v0c.11,0,.18,0,.26,0A6.43,6.43,0,0,0,312,98.47a3.55,3.55,0,0,0-3.54-4.68h-61c-20.73,0-33.35-16.81-28.19-37.53l2.35-9.38c5.16-20.71,26.13-37.52,46.83-37.52h18.77c20.74,0,33.33,16.81,28.21,37.52l-1.6,6.41a2.19,2.19,0,0,0-.26.59c-.61,2.48-4.38,2.33-4.38,2.33l-.05,0H228.65c-3.86,15.55,5.61,28.16,21.15,28.16h60.72v0c.08,0,.17,0,.26,0a6.41,6.41,0,0,0,5.85-4.7A3.54,3.54,0,0,0,313.1,75h-61c-6.93,0-12-3.76-13.89-9.4H311.6c8.54-.72,10.86-9.37,10.86-9.37Z"/><path class="cls-1" d="M575.64,18.76H556.89c-15.58,0-31.29,12.6-35.16,28.13h75C600.62,31.35,591.17,18.76,575.64,18.76ZM536,37.51c4.65-5.61,11.63-9.38,18.56-9.38h18.78c6.93,0,12,3.78,13.89,9.38Zm77.2,18.76,2.35-9.38C621.95,21,606.2,0,580.3,0H561.53C535.62,0,509.39,21,503,46.89l-2.33,9.38c-6.45,25.91,9.34,46.92,35.21,46.92h60.74v0c.09,0,.15,0,.24,0a6.38,6.38,0,0,0,5.85-4.71,3.53,3.53,0,0,0-3.5-4.68h-61C517.48,93.8,504.87,77,510,56.27l2.33-9.38c5.17-20.71,26.13-37.52,46.86-37.52h18.73c20.76,0,33.38,16.81,28.21,37.52l-1.6,6.41a2.25,2.25,0,0,0-.24.59c-.66,2.48-4.36,2.33-4.36,2.33l0,0H519.38c-3.84,15.55,5.62,28.16,21.15,28.16h60.7v0c.1,0,.18,0,.27,0a6.41,6.41,0,0,0,5.84-4.7,3.53,3.53,0,0,0-3.5-4.68h-61c-6.9,0-12-3.76-13.87-9.4h73.38c8.5-.73,10.82-9.37,10.82-9.37Z"/><path class="cls-1" d="M446.82,5.76l0,.52v.22l4.46,63.26.9,12.51a.7.7,0,0,0,.76.52,1.42,1.42,0,0,0,1.08-.56l1.43-2.51h0l5.69-10,36.35-64h0A7.94,7.94,0,0,0,498,4.69,3.57,3.57,0,0,0,494.4,0,6.32,6.32,0,0,0,489,3.48h0L460.09,54.34,456.5,3.47h0A3.45,3.45,0,0,0,453.07,0h-.24a6.44,6.44,0,0,0-5.9,4.69,6.33,6.33,0,0,0-.12,1.08h0Zm70.83-1.08A3.54,3.54,0,0,0,514.11,0a6.35,6.35,0,0,0-5,2.78,4,4,0,0,0-.41.7,1.72,1.72,0,0,1-.17.3L462.28,85.16l-2.58,4.53c-.09.17-.2.29-.32.49-1.64,2.64-3.46,3.51-4.8,3.75h-1.71a0,0,0,0,1,0,0h-2.29l0,0h-.74v0h-2.25a.09.09,0,0,1-.07,0h-1.69A3.6,3.6,0,0,1,443,90.66l-.38-5.51L436.8,3.48l0-.51V2.86A3.48,3.48,0,0,0,433.12,0a6.39,6.39,0,0,0-5.86,4.69,3.62,3.62,0,0,0-.15.93v.17l.07.77,6.11,86.26A13.43,13.43,0,0,0,435,98.47a8,8,0,0,0,1.46,1.88,10.38,10.38,0,0,0,5.74,2.81,12.68,12.68,0,0,0,1.64.13H452a11.72,11.72,0,0,0,1.73-.14,17.22,17.22,0,0,0,7.53-3.14,14.7,14.7,0,0,0,2-1.59,25.76,25.76,0,0,0,4.77-6,13.61,13.61,0,0,1,.77-1.27L517.23,5.79h0a5.63,5.63,0,0,0,.41-1.1Z"/><path class="cls-1" d="M386.23,9.37H417a6.38,6.38,0,0,0,5.88-4.68A3.56,3.56,0,0,0,419.32,0H388.58C362.67,0,336.43,21,330,46.89L317.21,98.26h0a1,1,0,0,0-.09.21,3.56,3.56,0,0,0,3.52,4.71,6.44,6.44,0,0,0,5.85-4.71.8.8,0,0,0,0-.21h.06l12.77-51.37C344.54,26.18,365.5,9.37,386.23,9.37Zm28.44,9.39H383.9c-15.53,0-31.3,12.6-35.14,28.13L336,98.26h0a1.58,1.58,0,0,1-.11.21,3.57,3.57,0,0,0,3.52,4.71,6.44,6.44,0,0,0,5.88-4.71.9.9,0,0,0,0-.21h0l12.76-51.37c2.61-10.34,13.06-18.77,23.44-18.77h30.78a6.38,6.38,0,0,0,5.82-4.68,3.51,3.51,0,0,0-3.48-4.69Z"/><path class="cls-1" d="M679.09,9.37h30.75a6.36,6.36,0,0,0,5.88-4.68A3.55,3.55,0,0,0,712.2,0H681.4c-25.88,0-52.1,21-58.53,46.89L610.09,98.26h0c0,.08-.07.15-.07.21a3.55,3.55,0,0,0,3.53,4.71,6.42,6.42,0,0,0,5.86-4.71.86.86,0,0,1,0-.21h0l12.75-51.37C637.38,26.18,658.36,9.37,679.09,9.37Zm28.43,9.39H676.75c-15.54,0-31.26,12.6-35.14,28.13L628.84,98.26h0a1.28,1.28,0,0,0,0,.21,3.54,3.54,0,0,0,3.49,4.71,6.41,6.41,0,0,0,5.87-4.71.39.39,0,0,0,0-.21h0L651,46.89c2.58-10.34,13.08-18.77,23.43-18.77h30.77a6.44,6.44,0,0,0,5.88-4.68c.62-2.61-.94-4.69-3.55-4.69Z"/><path class="cls-1" d="M681,60.86c2.41-10.1,12.28-18.22,22.42-18.22s16.24,8.13,13.87,18.22S704.95,79,694.87,79,678.59,70.93,681,60.86Zm32,0c1.9-8.14-2.77-13.92-10.55-13.92a17.94,17.94,0,0,0-17.12,13.92c-1.87,8.07,2.66,13.83,10.6,13.83A18,18,0,0,0,712.94,60.86Zm-7.28,9.23H701l-2.32-8h-2.93l-1.88,8h-4.19l4.43-18.9h9.15c4.35,0,7.16.8,6,5.78-.79,3.47-2.93,4.92-6.35,5.14Zm-4.14-10.85c2.08,0,3.41-.44,4-2.82.42-1.94-2-1.94-3.83-1.94h-4.08l-1.13,4.76h5.07Z"/></svg>